<mxfile host="Electron" agent="Mozilla/5.0 (X11; Linux x86_64) AppleWebKit/537.36 (KHTML, like Gecko) draw.io/28.1.2 Chrome/138.0.7204.243 Electron/37.4.0 Safari/537.36" version="28.1.2">
  <diagram name="Page-1" id="ZRghS7cikStAzflewc2l">
    <mxGraphModel dx="706" dy="531" grid="1" gridSize="10" guides="1" tooltips="1" connect="1" arrows="1" fold="1" page="1" pageScale="1" pageWidth="850" pageHeight="1100" math="0" shadow="0">
      <root>
        <mxCell id="0" />
        <mxCell id="1" parent="0" />
        <mxCell id="EF2nwmXu5p3IJCyfQNzA-1" value="" style="rounded=0;whiteSpace=wrap;html=1;fillColor=none;dashed=1;fontStyle=1" vertex="1" parent="1">
          <mxGeometry x="20" y="100" width="100" height="310" as="geometry" />
        </mxCell>
        <mxCell id="EF2nwmXu5p3IJCyfQNzA-5" value="&lt;b&gt;Source&lt;/b&gt;" style="rounded=1;whiteSpace=wrap;html=1;strokeColor=none;" vertex="1" parent="1">
          <mxGeometry x="40" y="80" width="60" height="30" as="geometry" />
        </mxCell>
        <mxCell id="EF2nwmXu5p3IJCyfQNzA-33" style="edgeStyle=orthogonalEdgeStyle;rounded=0;orthogonalLoop=1;jettySize=auto;html=1;entryX=0;entryY=0.5;entryDx=0;entryDy=0;" edge="1" parent="1" source="EF2nwmXu5p3IJCyfQNzA-8" target="EF2nwmXu5p3IJCyfQNzA-19">
          <mxGeometry relative="1" as="geometry" />
        </mxCell>
        <mxCell id="EF2nwmXu5p3IJCyfQNzA-34" style="edgeStyle=orthogonalEdgeStyle;rounded=0;orthogonalLoop=1;jettySize=auto;html=1;entryX=0;entryY=0.25;entryDx=0;entryDy=0;" edge="1" parent="1" source="EF2nwmXu5p3IJCyfQNzA-8" target="EF2nwmXu5p3IJCyfQNzA-20">
          <mxGeometry relative="1" as="geometry" />
        </mxCell>
        <mxCell id="EF2nwmXu5p3IJCyfQNzA-35" style="edgeStyle=orthogonalEdgeStyle;rounded=0;orthogonalLoop=1;jettySize=auto;html=1;entryX=0;entryY=0.25;entryDx=0;entryDy=0;" edge="1" parent="1" source="EF2nwmXu5p3IJCyfQNzA-8" target="EF2nwmXu5p3IJCyfQNzA-17">
          <mxGeometry relative="1" as="geometry" />
        </mxCell>
        <mxCell id="EF2nwmXu5p3IJCyfQNzA-8" value="CRM" style="image;html=1;image=img/lib/clip_art/general/Full_Folder_128x128.png;fontStyle=1" vertex="1" parent="1">
          <mxGeometry x="30" y="140" width="70" height="50" as="geometry" />
        </mxCell>
        <mxCell id="EF2nwmXu5p3IJCyfQNzA-30" style="edgeStyle=orthogonalEdgeStyle;rounded=0;orthogonalLoop=1;jettySize=auto;html=1;entryX=0;entryY=0.25;entryDx=0;entryDy=0;" edge="1" parent="1" source="EF2nwmXu5p3IJCyfQNzA-10" target="EF2nwmXu5p3IJCyfQNzA-26">
          <mxGeometry relative="1" as="geometry" />
        </mxCell>
        <mxCell id="EF2nwmXu5p3IJCyfQNzA-31" style="edgeStyle=orthogonalEdgeStyle;rounded=0;orthogonalLoop=1;jettySize=auto;html=1;entryX=0;entryY=0.5;entryDx=0;entryDy=0;" edge="1" parent="1" source="EF2nwmXu5p3IJCyfQNzA-10" target="EF2nwmXu5p3IJCyfQNzA-27">
          <mxGeometry relative="1" as="geometry" />
        </mxCell>
        <mxCell id="EF2nwmXu5p3IJCyfQNzA-32" style="edgeStyle=orthogonalEdgeStyle;rounded=0;orthogonalLoop=1;jettySize=auto;html=1;entryX=0;entryY=0.5;entryDx=0;entryDy=0;" edge="1" parent="1" source="EF2nwmXu5p3IJCyfQNzA-10" target="EF2nwmXu5p3IJCyfQNzA-29">
          <mxGeometry relative="1" as="geometry" />
        </mxCell>
        <mxCell id="EF2nwmXu5p3IJCyfQNzA-10" value="ERP" style="image;aspect=fixed;html=1;points=[];align=center;fontSize=12;image=img/lib/azure2/general/Folder_Blank.svg;fontStyle=1" vertex="1" parent="1">
          <mxGeometry x="35.5" y="298" width="69" height="56.00000000000001" as="geometry" />
        </mxCell>
        <mxCell id="EF2nwmXu5p3IJCyfQNzA-12" value="" style="rounded=0;whiteSpace=wrap;html=1;fillColor=#ffe6cc;strokeColor=#d79b00;" vertex="1" parent="1">
          <mxGeometry x="180" y="110" width="120" height="300" as="geometry" />
        </mxCell>
        <mxCell id="EF2nwmXu5p3IJCyfQNzA-15" value="&lt;b&gt;Bronze&amp;nbsp; Layer&lt;/b&gt;" style="rounded=1;whiteSpace=wrap;html=1;fillColor=#ffe6cc;strokeColor=#d79b00;" vertex="1" parent="1">
          <mxGeometry x="195" y="90" width="90" height="20" as="geometry" />
        </mxCell>
        <mxCell id="EF2nwmXu5p3IJCyfQNzA-17" value="&lt;font style=&quot;font-size: 10px;&quot;&gt;crm_sales_details&lt;/font&gt;" style="rounded=1;whiteSpace=wrap;html=1;fillColor=#ffe6cc;strokeColor=#d79b00;" vertex="1" parent="1">
          <mxGeometry x="195" y="190" width="90" height="20" as="geometry" />
        </mxCell>
        <mxCell id="EF2nwmXu5p3IJCyfQNzA-19" value="&lt;font style=&quot;font-size: 10px;&quot;&gt;crm_cust_info&lt;/font&gt;" style="rounded=1;whiteSpace=wrap;html=1;fillColor=#ffe6cc;strokeColor=#d79b00;" vertex="1" parent="1">
          <mxGeometry x="195" y="130" width="90" height="20" as="geometry" />
        </mxCell>
        <mxCell id="EF2nwmXu5p3IJCyfQNzA-20" value="&lt;font style=&quot;font-size: 10px;&quot;&gt;crm_prd_info&lt;/font&gt;" style="rounded=1;whiteSpace=wrap;html=1;fillColor=#ffe6cc;strokeColor=#d79b00;" vertex="1" parent="1">
          <mxGeometry x="195" y="160" width="90" height="20" as="geometry" />
        </mxCell>
        <mxCell id="EF2nwmXu5p3IJCyfQNzA-26" value="&lt;span style=&quot;font-size: 10px;&quot;&gt;erp_cust_az12&lt;/span&gt;" style="rounded=1;whiteSpace=wrap;html=1;fillColor=#ffe6cc;strokeColor=#d79b00;" vertex="1" parent="1">
          <mxGeometry x="195" y="280" width="90" height="20" as="geometry" />
        </mxCell>
        <mxCell id="EF2nwmXu5p3IJCyfQNzA-27" value="&lt;font style=&quot;font-size: 10px;&quot;&gt;erp_loc101&lt;/font&gt;" style="rounded=1;whiteSpace=wrap;html=1;fillColor=#ffe6cc;strokeColor=#d79b00;" vertex="1" parent="1">
          <mxGeometry x="195" y="316" width="90" height="20" as="geometry" />
        </mxCell>
        <mxCell id="EF2nwmXu5p3IJCyfQNzA-29" value="&lt;font style=&quot;font-size: 10px;&quot;&gt;erp_px_cat_g1v2&lt;/font&gt;" style="rounded=1;whiteSpace=wrap;html=1;fillColor=#ffe6cc;strokeColor=#d79b00;" vertex="1" parent="1">
          <mxGeometry x="195" y="350" width="90" height="20" as="geometry" />
        </mxCell>
      </root>
    </mxGraphModel>
  </diagram>
</mxfile>
